<svg width="1024" height="1024" viewBox="0 0 1024 1024" fill="none" xmlns="http://www.w3.org/2000/svg">
<path d="M369.191 668.227C399.285 598.803 467.797 549.924 547.919 548.339C550.537 535.464 551.917 522.132 551.917 508.483C551.917 494.776 550.526 481.396 547.893 468.48C471.316 466.952 405.343 422.224 373.389 357.658L216 515.036L369.191 668.227Z" fill="#D60C8C"/>
<path d="M547.913 468.48C533.443 397.281 480.96 339.937 412.591 318.444L373.394 357.641C405.353 422.229 471.326 466.968 547.913 468.48Z" fill="#92278F"/>
<path d="M369.227 668.258L402.345 701.376C475.687 682.602 532.732 623.134 547.918 548.417C467.823 550.003 399.337 598.861 369.227 668.258Z" fill="#92278F"/>
<path d="M551.923 548.317C550.579 548.317 549.257 548.391 547.919 548.422C532.732 623.139 475.688 682.607 402.346 701.381L631.054 930.079C701.615 899.468 751 829.218 751 747.4C750.995 637.441 661.86 548.317 551.923 548.317Z" fill="#002863"/>
<path d="M640.041 91L412.592 318.444C480.962 339.937 533.444 397.281 547.914 468.48C549.252 468.506 550.574 468.58 551.918 468.58C661.855 468.58 750.99 379.455 750.99 269.502C750.99 191.208 705.772 123.512 640.041 91Z" fill="#002863"/>
</svg>
