<svg width="409" height="160" viewBox="0 0 409 160" fill="none" xmlns="http://www.w3.org/2000/svg">
<path d="M30.053 109.935C35.766 96.756 48.772 87.477 63.982 87.176C64.479 84.732 64.741 82.201 64.741 79.61C64.741 77.008 64.477 74.468 63.977 72.016C49.44 71.726 36.916 63.235 30.85 50.978L0.971985 80.854L30.053 109.935Z" fill="#D60C8C"/>
<path d="M63.981 72.016C61.234 58.5 51.271 47.614 38.292 43.534L30.851 50.975C36.918 63.236 49.442 71.729 63.981 72.016Z" fill="#92278F"/>
<path d="M30.06 109.941L36.347 116.228C50.27 112.664 61.099 101.375 63.982 87.191C48.777 87.492 35.776 96.767 30.06 109.941Z" fill="#92278F"/>
<path d="M64.742 87.172C64.487 87.172 64.236 87.186 63.982 87.192C61.099 101.376 50.27 112.665 36.347 116.229L79.764 159.644C93.159 153.833 102.534 140.497 102.534 124.965C102.533 104.091 85.612 87.172 64.742 87.172Z" fill="#002863"/>
<path d="M81.47 0.356995L38.292 43.534C51.271 47.614 61.234 58.5 63.981 72.016C64.235 72.021 64.486 72.035 64.741 72.035C85.611 72.035 102.532 55.116 102.532 34.243C102.532 19.38 93.948 6.52899 81.47 0.356995Z" fill="#002863"/>
<path d="M404.308 59.586C402.185 59.586 399.912 61.352 399.912 63.982V100.02C399.912 110.748 391.4 119.252 380.564 119.381C369.852 119.252 361.46 110.748 361.46 100.02V63.982C361.46 61.518 359.531 59.586 357.066 59.586C354.603 59.586 352.671 61.518 352.671 63.982V100.02C352.671 115.543 365.178 128.169 380.55 128.169C396.148 128.169 408.835 115.543 408.835 100.02V63.982C408.835 61.476 406.887 59.586 404.308 59.586Z" fill="#002863"/>
<path d="M313.607 59.586C298.01 59.586 285.322 72.214 285.322 87.736V123.774C285.322 126.281 287.27 128.169 289.851 128.169C291.973 128.169 294.245 126.403 294.245 123.774V87.736C294.245 77.01 302.756 68.506 313.592 68.376C324.305 68.506 332.697 77.01 332.697 87.736V123.774C332.697 126.239 334.628 128.169 337.093 128.169C339.558 128.169 341.487 126.24 341.487 123.774V87.736C341.487 72.214 328.981 59.586 313.607 59.586Z" fill="#002863"/>
<path d="M269.609 59.722C267.144 59.722 265.214 61.651 265.214 64.115V123.774C265.214 126.156 267.226 128.169 269.609 128.169C272.108 128.169 274.139 126.199 274.139 123.774V64.115C274.14 61.611 272.191 59.722 269.609 59.722Z" fill="#002863"/>
<path d="M269.676 52.175C272.697 52.175 275.156 49.717 275.156 46.694C275.156 43.672 272.697 41.213 269.676 41.213C266.655 41.213 264.197 43.672 264.197 46.694C264.198 49.717 266.655 52.175 269.676 52.175Z" fill="#002863"/>
<path d="M253.438 59.722C242.352 59.722 232.402 64.664 225.666 72.457V64.115C225.666 61.611 223.719 59.722 221.136 59.722C218.671 59.722 216.741 61.651 216.741 64.115V123.774C216.741 126.156 218.753 128.169 221.136 128.169C223.636 128.169 225.666 126.199 225.666 123.774V96.427C225.666 81.12 238.129 68.667 253.438 68.667C255.907 68.667 257.909 66.663 257.909 64.193C257.909 61.725 255.907 59.722 253.438 59.722Z" fill="#002863"/>
<path d="M146.418 128.18C143.914 128.18 141.884 126.15 141.884 123.646V38.11C141.884 35.605 143.914 33.575 146.418 33.575C148.921 33.575 150.951 35.605 150.951 38.11V123.646C150.952 126.15 148.922 128.18 146.418 128.18Z" fill="#002863"/>
<path d="M201.061 128.177C199.899 128.177 198.741 127.735 197.855 126.848L155.086 84.079C154.236 83.228 153.757 82.075 153.757 80.872C153.757 79.67 154.236 78.516 155.086 77.665L197.851 34.902C199.623 33.131 202.495 33.133 204.262 34.902C206.033 36.673 206.033 39.544 204.262 41.314L164.704 80.872L204.266 120.435C206.037 122.207 206.037 125.077 204.266 126.847C203.382 127.735 202.221 128.177 201.061 128.177Z" fill="#002863"/>
</svg>
