<svg width="409" height="160" viewBox="0 0 409 160" fill="none" xmlns="http://www.w3.org/2000/svg">
<path d="M30.053 109.935C35.767 96.756 48.773 87.477 63.983 87.176C64.479 84.732 64.742 82.201 64.742 79.61C64.742 77.008 64.478 74.468 63.977 72.016C49.441 71.726 36.916 63.235 30.85 50.978L0.971985 80.854L30.053 109.935Z" fill="white"/>
<path d="M63.98 72.016C61.234 58.5 51.27 47.614 38.292 43.534L30.851 50.975C36.918 63.236 49.442 71.729 63.98 72.016Z" fill="#92278F"/>
<path d="M30.061 109.941L36.348 116.228C50.27 112.664 61.1 101.375 63.983 87.191C48.777 87.492 35.775 96.767 30.061 109.941Z" fill="#92278F"/>
<path d="M64.742 87.172C64.486 87.172 64.236 87.186 63.982 87.192C61.099 101.376 50.269 112.665 36.347 116.229L79.763 159.644C93.158 153.833 102.533 140.497 102.533 124.965C102.533 104.091 85.611 87.172 64.742 87.172Z" fill="#D60C8C"/>
<path d="M81.471 0.356995L38.292 43.534C51.271 47.614 61.234 58.5 63.98 72.016C64.234 72.021 64.486 72.035 64.741 72.035C85.611 72.035 102.532 55.116 102.532 34.243C102.532 19.38 93.947 6.52899 81.471 0.356995Z" fill="#D60C8C"/>
<path d="M404.308 59.586C402.185 59.586 399.912 61.352 399.912 63.982V100.02C399.912 110.748 391.4 119.252 380.563 119.381C369.852 119.252 361.459 110.748 361.459 100.02V63.982C361.459 61.518 359.529 59.586 357.064 59.586C354.601 59.586 352.669 61.518 352.669 63.982V100.02C352.669 115.543 365.177 128.169 380.549 128.169C396.147 128.169 408.834 115.543 408.834 100.02V63.982C408.835 61.476 406.887 59.586 404.308 59.586Z" fill="white"/>
<path d="M313.607 59.586C298.009 59.586 285.322 72.214 285.322 87.736V123.774C285.322 126.281 287.27 128.169 289.851 128.169C291.972 128.169 294.245 126.403 294.245 123.774V87.736C294.245 77.01 302.756 68.506 313.592 68.376C324.306 68.506 332.697 77.01 332.697 87.736V123.774C332.697 126.239 334.629 128.169 337.093 128.169C339.557 128.169 341.486 126.24 341.486 123.774V87.736C341.486 72.214 328.98 59.586 313.607 59.586Z" fill="white"/>
<path d="M269.609 59.722C267.144 59.722 265.214 61.651 265.214 64.115V123.774C265.214 126.156 267.226 128.169 269.609 128.169C272.107 128.169 274.139 126.199 274.139 123.774V64.115C274.14 61.611 272.191 59.722 269.609 59.722Z" fill="white"/>
<path d="M269.676 52.175C272.697 52.175 275.156 49.717 275.156 46.694C275.156 43.672 272.697 41.213 269.676 41.213C266.655 41.213 264.197 43.672 264.197 46.694C264.197 49.717 266.654 52.175 269.676 52.175Z" fill="white"/>
<path d="M253.438 59.722C242.352 59.722 232.403 64.664 225.667 72.457V64.115C225.667 61.611 223.72 59.722 221.137 59.722C218.672 59.722 216.742 61.651 216.742 64.115V123.774C216.742 126.156 218.755 128.169 221.137 128.169C223.636 128.169 225.667 126.199 225.667 123.774V96.427C225.667 81.12 238.13 68.667 253.438 68.667C255.908 68.667 257.91 66.663 257.91 64.193C257.909 61.725 255.907 59.722 253.438 59.722Z" fill="white"/>
<path d="M146.418 128.18C143.914 128.18 141.885 126.15 141.885 123.646V38.11C141.885 35.605 143.914 33.575 146.418 33.575C148.922 33.575 150.951 35.605 150.951 38.11V123.646C150.951 126.15 148.922 128.18 146.418 128.18Z" fill="white"/>
<path d="M201.061 128.177C199.9 128.177 198.741 127.735 197.856 126.848L155.086 84.079C154.236 83.228 153.758 82.075 153.758 80.872C153.758 79.67 154.237 78.516 155.086 77.665L197.852 34.902C199.623 33.131 202.496 33.133 204.263 34.902C206.034 36.673 206.034 39.544 204.263 41.314L164.705 80.872L204.267 120.435C206.037 122.207 206.037 125.077 204.267 126.847C203.382 127.735 202.221 128.177 201.061 128.177Z" fill="white"/>
</svg>
